P3
#
16 16
15
 2  0  0    5  0  0    11  0  0   15  0 0  2  0  0    5  0  0    11  0  0   15  0 0  2  0  0    5  0  0    11  0  0   15  0 0  2  0  0    5  0  0    11  0  0   15  0 0 
 4  0  0    0 15  7    0  0  0    0  0  0   4  0  0    0 15  7    0  0  0    0  0  0   4  0  0    0 15  7    0  0  0    0  0  0   4  0  0    0 15  7    0  0  0    0  0  0  
 6  0  0    0  0  0    0 15  7    0  0  0   6  0  0    0  0  0    0 15  7    0  0  0   6  0  0    0  0  0    0 15  7    0  0  0   6  0  0    0  0  0    0 15  7    0  0  0  
8  0 15     0  0  0    0  0  0    15  15  15  8  0 15     0  0  0    0  0  0    15  15  15  8  0 15     0  0  0    0  0  0    15  15  15  8  0 15     0  0  0    0  0  0    15  15  15  
 2  0  0    5  0  0    11  0  0   15  0 0   2  0  0    5  0  0    11  0  0   15  0 0   2  0  0    5  0  0    11  0  0   15  0 0   2  0  0    5  0  0    11  0  0   15  0 0  
 4  0  0    0 15  7    0  0  0    0  0  0   4  0  0    0 15  7    0  0  0    0  0  0   4  0  0    0 15  7    0  0  0    0  0  0   4  0  0    0 15  7    0  0  0    0  0  0  
 6  0  0    0  0  0    0 15  7    0  0  0   6  0  0    0  0  0    0 15  7    0  0  0   6  0  0    0  0  0    0 15  7    0  0  0   6  0  0    0  0  0    0 15  7    0  0  0  
8  0 15     0  0  0    0  0  0    15  15  15  8  0 15     0  0  0    0  0  0    15  15  15  8  0 15     0  0  0    0  0  0    15  15  15  8  0 15     0  0  0    0  0  0    15  15  15  
 2  0  0    5  0  0    11  0  0   15  0 0   2  0  0    5  0  0    11  0  0   15  0 0   2  0  0    5  0  0    11  0  0   15  0 0   2  0  0    5  0  0    11  0  0   15  0 0  
 4  0  0    0 15  7    0  0  0    0  0  0   4  0  0    0 15  7    0  0  0    0  0  0   4  0  0    0 15  7    0  0  0    0  0  0   4  0  0    0 15  7    0  0  0    0  0  0  
 6  0  0    0  0  0    0 15  7    0  0  0   6  0  0    0  0  0    0 15  7    0  0  0   6  0  0    0  0  0    0 15  7    0  0  0   6  0  0    0  0  0    0 15  7    0  0  0  
8  0 15     0  0  0    0  0  0    15  15  15  8  0 15     0  0  0    0  0  0    15  15  15  8  0 15     0  0  0    0  0  0    15  15  15  8  0 15     0  0  0    0  0  0    15  15  15  
 2  0  0    5  0  0    11  0  0   15  0 0   2  0  0    5  0  0    11  0  0   15  0 0   2  0  0    5  0  0    11  0  0   15  0 0   2  0  0    5  0  0    11  0  0   15  0 0  
 4  0  0    0 15  7    0  0  0    0  0  0   4  0  0    0 15  7    0  0  0    0  0  0   4  0  0    0 15  7    0  0  0    0  0  0   4  0  0    0 15  7    0  0  0    0  0  0  
 6  0  0    0  0  0    0 15  7    0  0  0   6  0  0    0  0  0    0 15  7    0  0  0   6  0  0    0  0  0    0 15  7    0  0  0   6  0  0    0  0  0    0 15  7    0  0  0  
8  0 15     0  0  0    0  0  0    15  15  15  8  0 15     0  0  0    0  0  0    15  15  15  8  0 15     0  0  0    0  0  0    15  15  15  8  0 15     0  0  0    0  0  0    15  15  15  